<?xml version="1.0" encoding="UTF-8" standalone="no"?>
<!-- Created with Inkscape (http://www.inkscape.org/) -->

<svg
   width="47.999996"
   height="47.846977"
   viewBox="0 0 12.699999 12.659513"
   version="1.1"
   id="svg1"
   xmlns="http://www.w3.org/2000/svg"
   xmlns:svg="http://www.w3.org/2000/svg">
  <defs
     id="defs1" />
  <path
     id="rect3"
     style="fill:none;stroke:#000000;stroke-width:0.79375"
     d="M 4.6492999,-0.55877985 V -0.8053721 a 0.79375,0.79375 135 0 1 0.79375,-0.79375 h 2.2474318 a 0.79375,0.79375 45 0 1 0.79375,0.79375 v 0.24659225"
     transform="translate(-0.2167661,1.9959971)" />
  <g
     id="g7"
     transform="translate(-0.49152657,-0.01702272)">
    <path
       style="fill:none;stroke:#000000;stroke-width:0.80578;stroke-opacity:1"
       id="rect2"
       width="11.894219"
       height="1.5754694"
       x="0.89441657"
       y="0.31695572"
       d="m 1.4235832,0.31695572 10.8358858,0 a 0.52916667,0.52916667 45 0 1 0.529167,0.52916667 V 1.3632584 a 0.52916667,0.52916667 135 0 1 -0.529167,0.5291667 l -10.8358858,0 A 0.52916667,0.52916667 45 0 1 0.89441657,1.3632584 V 0.84612239 A 0.52916667,0.52916667 135 0 1 1.4235832,0.31695572 Z"
       transform="translate(0,1.4838531)" />
    <g
       id="g6"
       transform="translate(0.44213897)">
      <path
         id="rect1"
         d="m 10.716698,3.7571694 v 7.7287416 c 0,0.438376 -0.355374,0.79375 -0.79375,0.79375 H 2.8758266 c -0.438376,0 -0.79375,-0.355374 -0.79375,-0.79375 V 3.7571694"
         style="fill:none;stroke:#000000;stroke-width:0.79375;stroke-opacity:1" />
      <g
         id="g5"
         transform="translate(-0.14973985)">
        <path
           style="fill:#000000;fill-rule:nonzero;stroke:none;stroke-width:0.79375;stroke-opacity:1"
           d="m 3.8378376,5.0736168 v 5.5316952 a 0.396875,0.396875 0 1 0 0.79375,0 V 5.0736168 a 0.396875,0.396875 0 1 0 -0.79375,0 z"
           id="path3"
           transform="translate(0,0.17354606)" />
        <path
           style="fill:#000000;fill-rule:nonzero;stroke:none;stroke-width:0.79375;stroke-opacity:1"
           d="m 3.8378376,5.0736168 v 5.5316952 a 0.396875,0.396875 0 1 0 0.79375,0 V 5.0736168 a 0.396875,0.396875 0 1 0 -0.79375,0 z"
           id="path3-1"
           transform="translate(2.3144146,0.17354606)" />
        <path
           style="fill:#000000;fill-rule:nonzero;stroke:none;stroke-width:0.79375;stroke-opacity:1"
           d="m 3.8378376,5.0736168 v 5.5316952 a 0.396875,0.396875 0 1 0 0.79375,0 V 5.0736168 a 0.396875,0.396875 0 1 0 -0.79375,0 z"
           id="path3-2"
           transform="translate(4.6288291,0.17354607)" />
      </g>
    </g>
  </g>
</svg>
