<?xml version="1.0" encoding="UTF-8" standalone="no"?>
<!-- Created with Inkscape (http://www.inkscape.org/) -->

<svg
   width="47.160999"
   height="48"
   viewBox="0 0 12.478015 12.7"
   version="1.1"
   id="svg1"
   xmlns="http://www.w3.org/2000/svg"
   xmlns:svg="http://www.w3.org/2000/svg">
  <defs
     id="defs1" />
  <path
     id="rect1"
     d="m 11.82382,11.223087 v 0.92899 c 0,0.223889 -0.172986,0.396875 -0.396875,0.396875 H 4.5477783 c -0.2238888,0 -0.396875,-0.172986 -0.396875,-0.396875 V 1.833327 c 0,-0.2238888 0.1729862,-0.396875 0.396875,-0.396875 h 6.8791667 c 0.223889,0 0.396875,0.1729862 0.396875,0.396875 v 0.7661106 a 0.396875,0.396875 0 1 0 0.79375,0 V 1.833327 c 0,-0.6579637 -0.532661,-1.19062499 -1.190625,-1.190625 H 4.5477783 c -0.6579637,0 -1.190625,0.5326613 -1.190625,1.190625 v 10.31875 c 0,0.657964 0.5326613,1.190625 1.190625,1.190625 h 6.8791667 c 0.657964,0 1.190625,-0.532661 1.190625,-1.190625 v -0.92899 a 0.396875,0.396875 0 1 0 -0.79375,0 z"
     style="fill:#000000;fill-rule:nonzero;stroke:none;stroke-width:0.79375"
     transform="translate(-3.3571533,-0.642702)" />
  <g
     id="g5"
     transform="translate(-1.220245,1.4749549)">
    <path
       style="fill:none;stroke:#000000;stroke-width:0.79375"
       id="path3"
       d="M 4.6903579,5.8165138 4.854759,5.5287966 5.5442193,4.3221766 a 0.30551456,0.30551456 179.74356 0 1 0.5291614,-0.00237 L 6.2403506,4.6060424 6.940584,5.8064425 A 0.30551456,0.30551456 119.74356 0 1 6.6780544,6.2658939 l -0.331371,0.00148 -1.3896937,0.00622 A 0.30551456,0.30551456 59.743563 0 1 4.6903579,5.8165138 Z"
       transform="rotate(-15.290749,12.848165,-1.4974664)" />
    <path
       id="rect5"
       style="fill:none;stroke:#000000;stroke-width:0.79375"
       d="m 10.971929,5.4604714 h 5.800792 a 0.52916668,0.52916668 45 0 1 0.529167,0.5291667 v 1.1588223 a 0.52916668,0.52916668 135 0 1 -0.529167,0.5291667 l -5.800792,0"
       transform="rotate(-45.290749,9.7614392,9.8489947)" />
  </g>
</svg>
