<?xml version="1.0" encoding="UTF-8" standalone="no"?>
<!-- Created with Inkscape (http://www.inkscape.org/) -->

<svg
   width="48"
   height="48"
   viewBox="0 0 12.7 12.7"
   version="1.1"
   id="svg1"
   xmlns="http://www.w3.org/2000/svg"
   xmlns:svg="http://www.w3.org/2000/svg">
  <defs
     id="defs1" />
  <g
     id="layer1"
     transform="translate(-0.42384091,0.59331712)">
    <path
       id="path1"
       style="fill:none;fill-opacity:0;stroke:#000000;stroke-width:0.79375"
       d="M 12.726966,5.7566829 A 5.953125,5.953125 0 0 1 6.7738409,11.709808 5.953125,5.953125 0 0 1 0.8207159,5.7566829 5.953125,5.953125 0 0 1 6.7738409,-0.19644213 5.953125,5.953125 0 0 1 12.726966,5.7566829 Z" />
    <g
       id="g5"
       transform="translate(-2.5032493,-1.521431)">
      <path
         style="fill:none;fill-opacity:0;fill-rule:nonzero;stroke:#000000;stroke-width:0.79375;stroke-linecap:round;stroke-dasharray:none;stroke-opacity:1"
         d="M 5.8900945,6.6404293 7.6575873,4.8729365 M 12.664086,6.6404293 10.896593,4.8729365"
         id="path2" />
      <g
         id="g4"
         transform="translate(2.4130456,1.417529)">
        <path
           style="fill:none;fill-opacity:0;fill-rule:nonzero;stroke:#000000;stroke-width:0.79375;stroke-linecap:round;stroke-dasharray:none;stroke-opacity:1"
           d="M 3.4770489,3.4554075 5.2445417,5.2229003 M 10.25104,3.4554075 8.4835475,5.2229003"
           id="path2-8" />
      </g>
    </g>
    <path
       style="fill:none;fill-opacity:0;stroke:#000000;stroke-width:0.79375;stroke-linecap:round;stroke-dasharray:none;stroke-opacity:1"
       d="m 4.6313162,8.1711398 c 2.3048373,-1.1578291 4.2850495,0 4.2850495,0"
       id="path6" />
  </g>
</svg>
