<?xml version="1.0" encoding="UTF-8" standalone="no"?>
<!-- Created with Inkscape (http://www.inkscape.org/) -->

<svg
   width="48"
   height="48"
   viewBox="0 0 12.7 12.7"
   version="1.1"
   id="svg1"
   xmlns="http://www.w3.org/2000/svg"
   xmlns:svg="http://www.w3.org/2000/svg">
  <defs
     id="defs1">
    <filter
       id="mask-powermask-path-effect5_inverse"
       style="color-interpolation-filters:sRGB"
       height="100"
       width="100"
       x="-50"
       y="-50">
      <feColorMatrix
         id="mask-powermask-path-effect5_primitive1"
         values="1"
         type="saturate"
         result="fbSourceGraphic" />
      <feColorMatrix
         id="mask-powermask-path-effect5_primitive2"
         values="-1 0 0 0 1 0 -1 0 0 1 0 0 -1 0 1 0 0 0 1 0 "
         in="fbSourceGraphic" />
    </filter>
    <filter
       id="mask-powermask-path-effect7_inverse"
       style="color-interpolation-filters:sRGB"
       height="100"
       width="100"
       x="-50"
       y="-50">
      <feColorMatrix
         id="mask-powermask-path-effect7_primitive1"
         values="1"
         type="saturate"
         result="fbSourceGraphic" />
      <feColorMatrix
         id="mask-powermask-path-effect7_primitive2"
         values="-1 0 0 0 1 0 -1 0 0 1 0 0 -1 0 1 0 0 0 1 0 "
         in="fbSourceGraphic" />
    </filter>
    <filter
       id="mask-powermask-path-effect8_inverse"
       style="color-interpolation-filters:sRGB"
       height="100"
       width="100"
       x="-50"
       y="-50">
      <feColorMatrix
         id="mask-powermask-path-effect8_primitive1"
         values="1"
         type="saturate"
         result="fbSourceGraphic" />
      <feColorMatrix
         id="mask-powermask-path-effect8_primitive2"
         values="-1 0 0 0 1 0 -1 0 0 1 0 0 -1 0 1 0 0 0 1 0 "
         in="fbSourceGraphic" />
    </filter>
    <clipPath
       clipPathUnits="userSpaceOnUse"
       id="clipPath12">
      <path
         style="baseline-shift:baseline;display:none;overflow:visible;opacity:1;vector-effect:none;stroke-width:1;stroke-linecap:round;enable-background:accumulate;stop-color:#000000;stop-opacity:1"
         d="m -4.6464844,5.8847655 a 0.396875,0.396875 0 0 0 -0.3964842,0.3984377 v 0.986328 H -6.03125 A 0.396875,0.396875 0 0 0 -6.4277345,7.6679686 0.396875,0.396875 0 0 0 -6.03125,8.064453 h 0.9882814 v 0.9863283 a 0.396875,0.396875 0 0 0 0.3964842,0.3984374 0.396875,0.396875 0 0 0 0.3964845,-0.3984374 V 8.064453 h 0.9882812 A 0.396875,0.396875 0 0 0 -2.8652345,7.6679686 0.396875,0.396875 0 0 0 -3.2617187,7.2695312 H -4.2499999 V 6.2832032 A 0.396875,0.396875 0 0 0 -4.6464844,5.8847655 Z"
         id="path12" />
      <path
         id="lpe_path-effect12"
         style="baseline-shift:baseline;display:inline;overflow:visible;opacity:1;vector-effect:none;stroke-width:1;stroke-linecap:round;enable-background:accumulate;stop-color:#000000;stop-opacity:1"
         class="powerclip"
         d="M -12.292126,0.0212662 H 2.9995406 V 15.312933 H -12.292126 Z m 7.6456416,5.8634993 a 0.396875,0.396875 0 0 0 -0.3964842,0.3984377 v 0.986328 H -6.03125 A 0.396875,0.396875 0 0 0 -6.4277345,7.6679686 0.396875,0.396875 0 0 0 -6.03125,8.064453 h 0.9882814 v 0.9863283 a 0.396875,0.396875 0 0 0 0.3964842,0.3984374 0.396875,0.396875 0 0 0 0.3964845,-0.3984374 V 8.064453 h 0.9882812 A 0.396875,0.396875 0 0 0 -2.8652345,7.6679686 0.396875,0.396875 0 0 0 -3.2617187,7.2695312 H -4.2499999 V 6.2832032 A 0.396875,0.396875 0 0 0 -4.6464844,5.8847655 Z" />
    </clipPath>
  </defs>
  <circle
     style="fill:none;stroke:#000000;stroke-width:0.79375;stroke-linecap:round;stroke-linejoin:round;stroke-dasharray:none"
     id="path9"
     cx="6.3499999"
     cy="6.3499999"
     r="4.7624998" />
  <g
     id="g11"
     transform="translate(9.5367431e-8,-0.37818663)">
    <path
       style="fill:none;stroke:#000000;stroke-width:0.79375;stroke-linecap:round;stroke-linejoin:round;stroke-dasharray:none"
       d="M 6.35,5.9819018 V 8.9728526"
       id="path10" />
    <circle
       style="fill:#000000;fill-opacity:1;stroke:none;stroke-width:0.79375;stroke-linecap:round;stroke-linejoin:round;stroke-dasharray:none"
       id="path11"
       cx="6.3499999"
       cy="4.6158123"
       r="0.52916664" />
  </g>
</svg>
