<?xml version="1.0" encoding="UTF-8" standalone="no"?>
<!-- Created with Inkscape (http://www.inkscape.org/) -->

<svg
   width="48"
   height="48"
   viewBox="0 0 12.7 12.7"
   version="1.1"
   id="svg1"
   xmlns="http://www.w3.org/2000/svg"
   xmlns:svg="http://www.w3.org/2000/svg">
  <defs
     id="defs1" />
  <circle
     style="fill:none;stroke:#000000;stroke-width:0.79375"
     id="path1"
     cx="6.3499999"
     cy="6.3499999"
     r="5.953125" />
  <path
     style="fill:#000000;fill-rule:nonzero;stroke:none;stroke-width:0.79375"
     d="M 3.591475,8.6937825 C 3.6544676,8.6302447 3.6521587,8.6317083 3.7858435,8.5280384 3.9195284,8.4243684 4.1164221,8.2892016 4.3575296,8.1707087 4.8397445,7.9337229 5.478858,7.7637976 6.2088136,7.9931962 6.5737914,8.1078955 6.9690393,8.3247489 7.3882231,8.7074566 A 0.396875,0.396875 0 1 0 7.9234051,8.121266 C 5.8998672,6.2738107 3.984931,7.3691971 3.2994265,7.9007924 3.2158652,7.9655925 3.0788954,8.0833982 3.0277958,8.1349401 A 0.396875,0.396875 0 1 0 3.591475,8.6937825 Z"
     id="path3"
     transform="translate(0.86727527,0.52916663)" />
  <path
     style="fill:#000000;fill-opacity:1;stroke:none;stroke-width:0.79375"
     id="path4"
     d="m 5.156975,3.8154607 c 0,0.438376 -0.355374,0.79375 -0.79375,0.79375 -0.438376,0 -0.79375,-0.355374 -0.79375,-0.79375 0,-0.438376 0.355374,-0.79375 0.79375,-0.79375 0.438376,0 0.79375,0.355374 0.79375,0.79375 z m 2.38605,0 c 0,0.438376 0.355374,0.79375 0.79375,0.79375 0.438376,0 0.79375,-0.355374 0.79375,-0.79375 0,-0.438376 -0.355374,-0.79375 -0.79375,-0.79375 -0.438376,0 -0.79375,0.355374 -0.79375,0.79375 z"
     transform="translate(0,1.0583333)" />
</svg>
