<?xml version="1.0" encoding="UTF-8" standalone="no"?>
<!-- Created with Inkscape (http://www.inkscape.org/) -->

<svg
   width="48.000252"
   height="48.077499"
   viewBox="0 0 12.700067 12.720505"
   version="1.1"
   id="svg1"
   xmlns="http://www.w3.org/2000/svg"
   xmlns:svg="http://www.w3.org/2000/svg">
  <defs
     id="defs1" />
  <g
     id="layer1"
     transform="translate(0.19761596,-0.02663874)">
    <path
       style="fill:#000000;fill-opacity:1;stroke:#000000;stroke-width:0.832182;stroke-linecap:round;stroke-dasharray:none;stroke-opacity:1"
       id="path5"
       d="M 9.7427671,12.29899 6.3406206,10.434825 a 0.36888591,0.38747218 3.2491599e-6 0 0 -0.3433149,0.0012 l -3.390721,1.886951 A 0.09571254,0.100535 3.2492602e-6 0 1 2.4673869,12.21746 L 3.1039489,8.2427406 A 0.36888591,0.38747218 3.2491599e-6 0 0 2.9968174,7.9001356 L 0.24047323,5.0959976 a 0.09571254,0.100535 3.2492602e-6 0 1 0.052522,-0.171661 L 4.0885597,4.3319916 A 0.36888591,0.38747218 3.2491599e-6 0 0 4.36566,4.1190956 L 6.0528691,0.49905256 a 0.09571254,0.100535 3.2492602e-6 0 1 0.1716563,-5.64e-4 L 7.9337507,4.1071176 a 0.36888591,0.38747218 3.2491599e-6 0 0 0.2783921,0.211029 l 3.7990962,0.566825 a 0.09571254,0.100535 3.2492602e-6 0 1 0.05357,0.171302 l -2.7392091,2.822602 a 0.36888591,0.38747218 3.2491599e-6 0 0 -0.1050484,0.343319 l 0.6607616,3.9703634 a 0.09571254,0.100535 3.2492602e-6 0 1 -0.138545,0.106447 z" />
  </g>
</svg>
