<?xml version="1.0" encoding="UTF-8" standalone="no"?>
<!-- Created with Inkscape (http://www.inkscape.org/) -->

<svg
   width="36.081112"
   height="34.257507"
   viewBox="0 0 9.5464609 9.0639654"
   version="1.1"
   id="svg1"
   xmlns="http://www.w3.org/2000/svg"
   xmlns:svg="http://www.w3.org/2000/svg">
  <defs
     id="defs1" />
  <g
     id="layer1"
     transform="translate(-1.7167217,-0.13527992)">
    <path
       style="fill:#39d8c9;fill-opacity:1;stroke:none;stroke-width:1.15707;stroke-linecap:round"
       id="path3"
       d="M 11.252452,4.6684082 A 4.7624998,4.4979167 0 0 1 6.4890423,9.1651792 4.7624998,4.4979167 0 0 1 1.7274523,4.6666898 4.7624998,4.4979167 0 0 1 6.4902553,0.16934586 4.7624998,4.4979167 0 0 1 11.252452,4.6672626 H 6.4899521 Z" />
    <g
       id="g3"
       transform="translate(0.24170211,0.24725564)">
      <path
         style="fill:none;stroke:#000000;stroke-width:1.05833;stroke-linecap:round"
         d="M 3.6112249,4.4519244 H 10.492315"
         id="path1" />
      <path
         style="fill:none;stroke:#000000;stroke-width:1.05833;stroke-linecap:round"
         id="path2"
         d="M 9.9440414,6.3795392 A 4.2420297,4.0020132 0 0 1 4.6569235,8.1301766 4.2420297,4.0020132 0 0 1 2.1417729,3.4063863 4.2420297,4.0020132 0 0 1 6.7869719,0.4501389 4.2420297,4.0020132 0 0 1 10.487674,4.4194331" />
    </g>
  </g>
</svg>
