<?xml version="1.0" encoding="UTF-8" standalone="no"?>
<!-- Created with Inkscape (http://www.inkscape.org/) -->

<svg
   width="36.081112"
   height="34.257507"
   viewBox="0 0 9.5464609 9.0639654"
   version="1.1"
   id="svg1"
   xmlns="http://www.w3.org/2000/svg"
   xmlns:svg="http://www.w3.org/2000/svg">
  <defs
     id="defs1" />
  <g
     id="layer1"
     transform="translate(-1.7167217,-0.13527992)">
    <path
       style="fill:#a6bcbc;fill-opacity:1;stroke:none;stroke-width:1.15707;stroke-linecap:round"
       id="path3"
       d="M 11.252452,4.6684082 A 4.7624998,4.4979167 0 0 1 6.4890423,9.1651792 4.7624998,4.4979167 0 0 1 1.7274523,4.6666898 4.7624998,4.4979167 0 0 1 6.4902553,0.16934586 4.7624998,4.4979167 0 0 1 11.252452,4.6672626 H 6.4899521 Z" />
    <ellipse
       style="fill:#484848;fill-opacity:1;stroke:none;stroke-width:1.05833;stroke-linecap:round"
       id="path1"
       cx="6.4899521"
       cy="2.7051425"
       rx="2.2328315"
       ry="2.2538958" />
    <path
       id="rect2"
       style="fill:#484848;stroke-width:1.05833;stroke-linecap:round"
       d="m 7.7501992,4.9075116 c 0,0 -1.0192654,0.3252653 -1.2755805,0.2549853 C 6.193499,5.2121063 5.0670432,4.9250896 5.0670432,4.9250896 c -0.3191737,0 -0.6062385,0.1950028 -0.7226562,0.4921875 L 4.0794039,7.7938446 c -0.092777,0.236836 0.081578,0.4920871 0.3359375,0.4921875 h 2.078125 l 2.078125,-0.042969 c 0.2543043,-0.00531 0.4237815,-0.2651145 0.3261719,-0.5 L 8.4826211,5.3860272 C 8.3601394,5.09129 8.0693059,4.9009727 7.7501992,4.9075116 Z" />
  </g>
</svg>
