<?xml version="1.0" encoding="UTF-8" standalone="no"?>
<!-- Created with Inkscape (http://www.inkscape.org/) -->

<svg
   width="48"
   height="48"
   viewBox="0 0 12.7 12.7"
   version="1.1"
   id="svg1"
   xmlns="http://www.w3.org/2000/svg"
   xmlns:svg="http://www.w3.org/2000/svg">
  <defs
     id="defs1" />
  <g
     id="g1"
     transform="translate(1.1690424e-5,1.0426581)">
    <g
       id="layer1"
       transform="translate(-2.2148519,-2.6892415)">
      <path
         id="path4-3-5"
         style="color:#000000;fill:#000000;stroke-linecap:round;-inkscape-stroke:none"
         d="M 7.5488932,2.6892415 2.5212931,3.843693 c -0.00123,0.00257 -0.00244,0.00515 -0.00362,0.00775 -0.033444,0.016422 -0.06441,0.037471 -0.091984,0.062528 -0.043478,0.021963 -0.082542,0.051743 -0.1152384,0.08785 -0.015033,0.010035 -0.029364,0.021085 -0.042891,0.033073 -0.00887,0.033209 -0.022752,0.054941 -0.022803,0.089314 -0.017203,0.030019 -0.02104,0.074647 -0.029908,0.1080897 V 9.886735 c 0.00553,0.01608 0.012091,0.031788 0.019637,0.047026 0.00976,0.05144 0.029609,0.10044 0.058394,0.144177 0.021034,0.04027 0.048827,0.07662 0.082165,0.107487 0.010619,0.01581 0.022363,0.03084 0.03514,0.04496 l 4.4550252,2.562635 c 6.874e-4,7.03e-4 0.00138,0.0014 0.00207,0.0021 l 0.00568,0.0021 c 0.03371,0.009 0.068461,0.01352 0.1033529,0.01344 0.00137,7.08e-4 0.00275,0.0014 0.00413,0.0021 0.028984,0.0162 0.059887,0.0287 0.091984,0.03721 0.014627,-0.005 0.028949,-0.01088 0.042891,-0.01757 0.017375,0.0038 0.034985,0.0064 0.05271,0.0078 L 9.128125,12.349634 C 8.98437,12.119656 8.8678328,11.873749 8.7808594,11.616862 L 7.4687948,11.945524 V 7.099825 L 11.820467,6.0115194 v 0.9741007 c 0.08552,-0.00936 0.171366,-0.015568 0.257349,-0.018604 0.179968,2.867e-4 0.359646,0.014454 0.537435,0.042375 v -1.503784 c -0.0015,-0.010407 -0.0034,-0.02075 -0.0057,-0.031006 5.97e-4,-0.022813 -7.75e-4,-0.045636 -0.0041,-0.068213 -0.0025,-0.00331 -0.0051,-0.00659 -0.0078,-0.00982 -0.0029,-0.00925 -0.0062,-0.018381 -0.0098,-0.027388 -0.0094,-0.020363 -0.02042,-0.039898 -0.03307,-0.058394 -0.013,-0.025753 -0.02876,-0.050012 -0.04702,-0.072347 -0.01631,-0.015778 -0.03395,-0.030127 -0.05271,-0.042891 -0.0026,-0.0021 -0.0052,-0.00417 -0.0078,-0.0062 -0.0014,-6.979e-4 -0.0027,-0.00139 -0.0041,-0.00207 -0.0099,-0.00949 -0.02022,-0.018455 -0.03101,-0.026872 -0.0026,-0.0021 -0.0052,-0.00417 -0.0078,-0.0062 L 7.8222616,2.7243815 c -0.050671,0.00555 -0.082136,-0.036581 -0.1270324,-0.012442 -0.037348,-0.034718 -0.098697,-0.00451 -0.146336,-0.022698 z M 7.5840332,3.4959106 11.117151,5.3691813 7.1210124,6.3691203 3.681429,4.3904297 Z M 3.0075684,4.9201131 6.6755615,7.0295451 V 11.769307 L 3.0075684,9.6583252 Z" />
      <g
         id="g7"
         transform="translate(-0.19209479,-0.06292628)">
        <path
           id="path5-3"
           style="fill:none;stroke:#000000;stroke-width:0.867833;stroke-linecap:round"
           d="m 14.67301,10.432935 a 2.5,2.5 0 0 1 -2.5,2.5 2.5,2.5 0 0 1 -2.5000001,-2.5 2.5,2.5 0 0 1 2.5000001,-2.5000002 2.5,2.5 0 0 1 2.5,2.5000002 z" />
        <g
           id="g2"
           transform="translate(5.8230099,4.0829349)">
          <path
             style="fill:none;stroke:#000000;stroke-width:0.79375;stroke-linecap:round;stroke-linejoin:round;stroke-dashoffset:7.5;stroke-opacity:1"
             d="M 5.351772,6.35 H 7.3482281"
             id="path1" />
          <path
             style="fill:none;stroke:#000000;stroke-width:0.79375;stroke-linecap:round;stroke-linejoin:round;stroke-dashoffset:7.5;stroke-opacity:1"
             d="M 6.3302588,7.3480329 6.3697412,5.3519671"
             id="path1-8" />
        </g>
      </g>
    </g>
    <path
       style="fill:none;stroke:#000000;stroke-width:0.79375;stroke-linecap:round;stroke-dasharray:none;stroke-dashoffset:7.5;stroke-opacity:1"
       d="M 3.0597601,0.94338597 7.740258,3.4418917 7.7314272,4.3491943"
       id="path4" />
  </g>
</svg>
