<?xml version="1.0" encoding="UTF-8" standalone="no"?>
<!-- Created with Inkscape (http://www.inkscape.org/) -->

<svg
   width="67.995338"
   height="54.704571"
   viewBox="0 0 17.990433 14.473918"
   version="1.1"
   id="svg1"
   xmlns="http://www.w3.org/2000/svg"
   xmlns:svg="http://www.w3.org/2000/svg">
  <defs
     id="defs1" />
  <g
     id="layer1"
     transform="translate(2.5759666,-0.63557205)">
    <path
       style="fill:none;stroke:#000000;stroke-width:0.79375;stroke-linecap:round;stroke-dasharray:none"
       d="m 4.7893383,-3.9201487 -0.3807053,0 a 0.55344645,0.55344645 154.44917 0 0 -0.4307259,0.205915 L 1.1650313,-0.22799266 A 0.74927198,0.74927198 109.44917 0 0 0.99888873,0.24250563 V 11.435437 A 0.26458333,0.26458333 45 0 0 1.2634721,11.70002 h 3.5258664 m 2e-7,-15.6201687 0.3807053,0 a 0.55344645,0.55344645 25.550827 0 1 0.4307259,0.205915 l 2.8128758,3.48624104 A 0.74927198,0.74927198 70.550827 0 1 8.5797883,0.24250563 V 11.435437 A 0.26458333,0.26458333 135 0 1 8.3152049,11.70002 H 4.7893385"
       id="path5"
       transform="rotate(47.609218,2.1589047,6.7341537)" />
    <path
       style="fill:none;stroke:#000000;stroke-width:0.867833;stroke-linecap:round;stroke-dasharray:none"
       id="path8"
       d="m -8.8673915,-5.6924624 a 3,3 0 0 1 -3.7307955,-0.6423654 3,3 0 0 1 -0.131481,-3.7834092 3,3 0 0 1 3.6772031,-0.899806"
       transform="rotate(166.60539)" />
    <ellipse
       style="fill:none;stroke:#000000;stroke-width:0.867833;stroke-linecap:round;stroke-dasharray:none"
       id="path9"
       cx="9.155921"
       cy="-4.7592607"
       rx="1.1540235"
       ry="1.2079499"
       transform="rotate(47.609218)" />
    <path
       style="fill:none;stroke:#000000;stroke-width:0.867833;stroke-linecap:round;stroke-dasharray:none"
       d="M 6.5048858,4.5460722 0.88876562,9.8478741"
       id="path10" />
    <path
       style="fill:none;stroke:#000000;stroke-width:0.867833;stroke-linecap:round;stroke-dasharray:none"
       d="M 6.6711055,7.1535487 2.1944342,11.239991"
       id="path11" />
  </g>
</svg>
