<?xml version="1.0" encoding="UTF-8" standalone="no"?>
<!-- Created with Inkscape (http://www.inkscape.org/) -->

<svg
   width="52.411034"
   height="43.297611"
   viewBox="0 0 13.867086 11.455826"
   version="1.1"
   id="svg1"
   xmlns="http://www.w3.org/2000/svg"
   xmlns:svg="http://www.w3.org/2000/svg">
  <defs
     id="defs1" />
  <g
     id="layer1"
     transform="translate(1.264186,-0.52711222)">
    <path
       style="fill:#000000;fill-rule:nonzero;stroke:none;stroke-width:0.79375;stroke-dasharray:none"
       d="m 9.1753972,2.3114955 h -9.67870573 c -0.53265607,0 -0.90085967,0.5360377 -0.70971457,1.0332158 L 0.23400384,7.1085015 C 0.4075612,7.559933 0.8398592,7.8568779 1.3235042,7.8568779 l 8.0051073,0 c 0.5008346,0 0.9254675,-0.3614057 1.0055215,-0.8558009 l 0.889168,-5.4912897 c 0.01808,-0.1116315 0.108892,-0.1889251 0.221978,-0.1889251 h 0.76062 a 0.396875,0.396875 0 1 0 0,-0.79374996 h -0.76062 c -0.500835,-1e-8 -0.925468,0.36140573 -1.005522,0.85580096 L 9.5505887,6.8742028 C 9.532513,6.9858344 9.4416971,7.0631279 9.3286115,7.0631279 l -8.0051073,0 c -0.1558283,0 -0.2926993,-0.094016 -0.34861874,-0.2394658 L -0.47214147,3.0598719 c 3.7065e-4,9.641e-4 9.7583e-4,0.00292 0.001368,0.00527 3.1758e-4,0.0019 5.0724e-4,0.00404 5.1571e-4,0.00618 7.63e-6,0.00192 -1.2654e-4,0.00383 -3.7669e-4,0.00562 -2.2514e-4,0.00161 -5.4212e-4,0.00313 -9.2143e-4,0.00453 -3.4138e-4,0.00126 -7.3269e-4,0.00242 -0.001159,0.0035 -3.8378e-4,9.713e-4 -7.9599e-4,0.00187 -0.001234,0.00273 -3.9465e-4,7.666e-4 -8.1073e-4,0.00149 -0.001253,0.00219 -0.003979,0.00629 -0.0136472,0.013104 -0.0233873,0.014889 -0.002036,3.73e-4 -0.003789,4.801e-4 -0.004719,4.801e-4 H 9.1753972 a 0.396875,0.396875 0 1 0 0,-0.79375 z"
       id="path1" />
    <circle
       style="fill:none;stroke:#000000;stroke-width:0.79375;stroke-dasharray:none"
       id="path4"
       cx="2.364212"
       cy="10.792314"
       r="0.79374999" />
    <circle
       style="fill:none;stroke:#000000;stroke-width:0.79375;stroke-dasharray:none"
       id="path4-8"
       cx="8.7727585"
       cy="10.792314"
       r="0.79374999" />
    <path
       style="fill:#000000;fill-rule:nonzero;stroke:none;stroke-width:0.79375;stroke-dasharray:none"
       d="M 9.5269737,7.079155 9.384749,8.9470394 c 6.212e-4,-0.00816 6.226e-4,-0.00828 0.00257,-0.016615 0.00158,-0.00675 0.00159,-0.00679 0.00398,-0.013289 0.00143,-0.0039 0.00308,-0.00769 0.0049,-0.011352 0.00164,-0.00329 0.00342,-0.00647 0.00534,-0.00953 0.00172,-0.00275 0.00355,-0.00541 0.00548,-0.00796 0.00173,-0.0023 0.00355,-0.00452 0.00543,-0.00665 0.0017,-0.00192 0.00346,-0.00378 0.00528,-0.00557 0.016384,-0.016118 0.038728,-0.02752 0.063009,-0.030898 0.00508,-7.063e-4 0.010161,-0.00105 0.01507,-0.00105 H 1.466083 a 0.396875,0.396875 0 1 0 0,0.79375 h 8.0297244 c 0.3585983,0 0.6531746,-0.2729996 0.6804006,-0.630563 L 10.318433,7.1394184 A 0.396875,0.396875 0 1 0 9.5269737,7.079155 Z"
       id="path5" />
    <path
       style="fill:#000000;fill-rule:nonzero;stroke:none;stroke-width:0.79375;stroke-dasharray:none"
       d="m 1.3616903,4.1718051 0.741939,2.0653185 A 0.396875,0.396875 0 1 0 2.8506401,5.9687696 L 2.1087011,3.9034511 a 0.396875,0.396875 0 1 0 -0.7470108,0.268354 z"
       id="path6"
       transform="translate(0.36790828)" />
    <path
       style="fill:#000000;fill-rule:nonzero;stroke:none;stroke-width:0.79375;stroke-dasharray:none"
       d="m 4.3683084,4.0376281 v 2.0653185 a 0.396875,0.396875 0 1 0 0.79375,0 V 4.0376281 a 0.396875,0.396875 0 1 0 -0.79375,0 z"
       id="path7"
       transform="translate(0.41154352)" />
    <path
       style="fill:#000000;fill-rule:nonzero;stroke:none;stroke-width:0.79375;stroke-dasharray:none"
       d="M 7.9689115,6.186491 8.4136378,4.1211725 A 0.396875,0.396875 0 1 0 7.6376736,3.9540837 L 7.1929473,6.0194022 A 0.396875,0.396875 0 1 0 7.9689115,6.186491 Z"
       id="path8" />
  </g>
</svg>
