<?xml version="1.0" encoding="UTF-8" standalone="no"?>
<!-- Created with Inkscape (http://www.inkscape.org/) -->

<svg
   width="48.625824"
   height="46.983051"
   viewBox="0 0 12.865583 12.430932"
   version="1.1"
   id="svg1"
   xmlns="http://www.w3.org/2000/svg"
   xmlns:svg="http://www.w3.org/2000/svg">
  <defs
     id="defs1" />
  <g
     id="layer1"
     transform="translate(0.28655843,1.0625078)">
    <path
       id="rect1"
       style="fill:none;stroke:#000000;stroke-width:0.79375;stroke-linecap:round;stroke-dasharray:none"
       d="M 0.90406656,6 H 5.3022077 v 4.1778 c 0,0.438376 -0.355374,0.79375 -0.79375,0.79375 H 0.90406656 c -0.43837602,0 -0.79375,-0.355374 -0.79375,-0.79375 V 6.79375 C 0.11031656,6.355374 0.46569054,6 0.90406656,6 Z M 11.388399,6 H 6.9902577 v 4.1778 c 0,0.438376 0.355374,0.79375 0.79375,0.79375 h 3.6043913 c 0.438376,0 0.79375,-0.355374 0.79375,-0.79375 V 6.79375 C 12.182149,6.355374 11.826775,6 11.388399,6 Z M 0.90406656,4.3059172 H 5.3022077 v -4.1778 c 0,-0.438376 -0.355374,-0.79375 -0.79375,-0.79375 H 0.90406656 c -0.43837602,0 -0.79375,0.355374 -0.79375,0.79375 v 3.38405 c 0,0.438376 0.35537398,0.79375 0.79375,0.79375 z m 10.48433244,0 H 6.9902577 v -4.1778 c 0,-0.438376 0.355374,-0.79375 0.79375,-0.79375 h 3.6043913 c 0.438376,0 0.79375,0.355374 0.79375,0.79375 v 3.38405 c 0,0.438376 -0.355374,0.79375 -0.79375,0.79375 z" />
  </g>
</svg>
