<?xml version="1.0" encoding="UTF-8" standalone="no"?>
<!-- Created with Inkscape (http://www.inkscape.org/) -->

<svg
   width="48.143764"
   height="44.129726"
   viewBox="0 0 12.738038 11.67599"
   version="1.1"
   id="svg1"
   xmlns="http://www.w3.org/2000/svg"
   xmlns:svg="http://www.w3.org/2000/svg">
  <defs
     id="defs1" />
  <path
     style="fill:#000000;fill-rule:nonzero;stroke:none;stroke-width:0.79375"
     d="m 9.5296334,5.8430143 0,5.3162437 c 0,-0.0092 -8.9e-6,-0.0093 0.00139,-0.01886 0.00445,-0.03034 0.019435,-0.05793 0.040291,-0.07752 0.00232,-0.0022 0.00472,-0.0043 0.0072,-0.0063 0.00276,-0.0022 0.00562,-0.0044 0.00858,-0.0064 0.00329,-0.0022 0.00671,-0.0044 0.010243,-0.0063 0.00393,-0.0022 0.00801,-0.0042 0.012227,-0.006 0.00468,-0.002 0.00953,-0.0038 0.014503,-0.0053 0.00828,-0.0025 0.00834,-0.0025 0.016893,-0.0039 0.010561,-0.0017 0.010718,-0.0017 0.020973,-0.0017 l -2.4299936,0 c 0.00923,0 0.00935,-9e-6 0.018859,0.0014 0.030337,0.0044 0.057932,0.01943 0.077525,0.04029 0.00218,0.0023 0.00427,0.0047 0.00628,0.0072 0.00223,0.0028 0.00437,0.0056 0.00639,0.0086 0.00225,0.0033 0.00436,0.0067 0.00634,0.01024 0.00219,0.0039 0.0042,0.008 0.00602,0.01223 0.00201,0.0047 0.00378,0.0095 0.00527,0.0145 0.00248,0.0083 0.0025,0.0083 0.00389,0.01689 0.00172,0.01056 0.00171,0.01072 0.00171,0.02097 l 0,-2.9835908 c 0,-0.3662471 -0.2952112,-0.6614583 -0.6614583,-0.6614583 H 5.627431 a 0.396875,0.396875 0 1 0 0,0.79375 l 1.0753339,0 c -0.010254,0 -0.010411,9.3e-6 -0.020973,-0.00171 -0.00855,-0.0014 -0.00861,-0.00141 -0.016893,-0.00389 -0.00497,-0.00149 -0.00982,-0.00326 -0.014503,-0.00527 -0.00422,-0.00181 -0.0083,-0.00383 -0.012227,-0.00602 -0.00354,-0.00197 -0.00695,-0.00409 -0.010243,-0.00634 -0.00296,-0.00202 -0.00582,-0.00416 -0.00858,-0.00639 -0.00248,-0.00201 -0.00488,-0.00411 -0.0072,-0.00628 -0.020856,-0.019593 -0.035843,-0.047187 -0.040291,-0.077525 -0.00139,-0.00951 -0.00139,-0.00963 -0.00139,-0.018859 l 0,2.9835908 c 5e-7,0.366247 0.2952115,0.661458 0.6614583,0.661458 l 2.4299936,0 c 0.3662469,0 0.6614579,-0.295211 0.6614579,-0.661458 V 5.8430143 a 0.396875,0.396875 0 1 0 -0.7937496,0 z m -8.59815479,0 0,5.3162437 c 4.5e-7,0.366247 0.29521149,0.661458 0.66145829,0.661458 l 2.4299936,0 c 0.3662468,0 0.6614578,-0.295211 0.6614583,-0.661458 l 0,-2.9835908 c 0,0.010254 9.3e-6,0.010411 -0.00171,0.020973 -0.0014,0.00855 -0.00141,0.00861 -0.00389,0.016893 -0.00149,0.00497 -0.00326,0.00982 -0.00527,0.014503 -0.00181,0.00422 -0.00383,0.0083 -0.00602,0.012227 -0.00197,0.00354 -0.00409,0.00695 -0.00634,0.010243 -0.00202,0.00296 -0.00416,0.00582 -0.00639,0.00858 -0.00201,0.00248 -0.00411,0.00488 -0.00628,0.0072 -0.019593,0.020856 -0.047187,0.035843 -0.077525,0.040291 -0.00951,0.00139 -0.00963,0.00139 -0.018859,0.00139 H 5.627431 a 0.396875,0.396875 0 1 0 0,-0.79375 l -1.0753339,0 c -0.3662471,0 -0.6614583,0.2952112 -0.6614583,0.6614583 l 0,2.9835908 c 0,-0.01025 -9.3e-6,-0.01041 0.00171,-0.02097 0.0014,-0.0086 0.00141,-0.0086 0.00389,-0.01689 0.00149,-0.005 0.00326,-0.0098 0.00527,-0.0145 0.00181,-0.0042 0.00383,-0.0083 0.00602,-0.01223 0.00197,-0.0035 0.00409,-0.007 0.00634,-0.01024 0.00202,-0.003 0.00416,-0.0058 0.00639,-0.0086 0.00201,-0.0025 0.00411,-0.0049 0.00628,-0.0072 0.019593,-0.02086 0.047187,-0.03584 0.077525,-0.04029 0.00951,-0.0014 0.00963,-0.0014 0.018859,-0.0014 l -2.4299936,0 c 0.00923,0 0.00935,-9e-6 0.018859,0.0014 0.030338,0.0044 0.057932,0.01943 0.077525,0.04029 0.00218,0.0023 0.00427,0.0047 0.00628,0.0072 0.00223,0.0028 0.00437,0.0056 0.00639,0.0086 0.00225,0.0033 0.00436,0.0067 0.00634,0.01024 0.00219,0.0039 0.0042,0.008 0.00602,0.01223 0.00201,0.0047 0.00378,0.0095 0.00527,0.0145 0.00248,0.0083 0.0025,0.0083 0.00389,0.01689 0.00172,0.01056 0.00171,0.01072 0.00171,0.02097 V 5.8430143 a 0.396875,0.396875 0 1 0 -0.79374999,0 z"
     id="path1"
     transform="translate(0.74158789,-0.14472534)" />
  <path
     style="fill:#000000;fill-rule:nonzero;stroke:none;stroke-width:0.79375001;stroke-dasharray:none"
     d="M -0.10051418,5.4252698 5.6630612,0.92648415 c -0.00174,0.001358 -0.00365,0.002678 -0.00567,0.00389 -0.00966,0.005798 -0.020868,0.008631 -0.031468,0.008349 -0.00118,-3.133e-5 -0.00236,-9.926e-5 -0.00354,-2.0427e-4 -0.00131,-1.1667e-4 -0.00262,-2.7911e-4 -0.00394,-4.8852e-4 -0.00146,-2.3268e-4 -0.00292,-5.2339e-4 -0.00438,-8.7398e-4 -0.00162,-3.8954e-4 -0.00325,-8.5316e-4 -0.00487,-0.001392 -0.0018,-5.9881e-4 -0.00358,-0.001291 -0.00534,-0.002073 -0.00293,-0.001303 -0.00295,-0.001313 -0.0057,-0.002918 -0.00227,-0.001321 -0.00442,-0.002781 -0.00635,-0.00429 L 11.355376,5.4252698 A 0.396875,0.396875 0 1 0 11.843774,4.7995644 L 6.0801982,0.30077887 C 5.8136296,0.09270749 5.4412323,0.0927075 5.1746639,0.30077884 L -0.58891142,4.7995644 a 0.396875,0.396875 0 1 0 0.48839724,0.6257054 z"
     id="path2"
     transform="translate(0.74158779,-0.14472534)" />
  <path
     style="fill:none;fill-opacity:1;stroke:#000000;stroke-width:0.767292;stroke-dasharray:none;stroke-opacity:1"
     d="M 8.0367189,4.6632813 V 2.1166667 A 0.26458333,0.26458333 135 0 1 8.3013023,1.8520834 h 1.6536464 a 0.26458333,0.26458333 45 0 1 0.2645833,0.2645833 v 1.0955405"
     id="path14"
     transform="translate(-5.7932435,-1.3412264)" />
</svg>
