<?xml version="1.0" encoding="UTF-8" standalone="no"?>
<!-- Created with Inkscape (http://www.inkscape.org/) -->

<svg
   width="31.739243"
   height="32"
   viewBox="0 0 8.3976744 8.4666666"
   version="1.1"
   id="svg1"
   xmlns="http://www.w3.org/2000/svg"
   xmlns:svg="http://www.w3.org/2000/svg">
  <defs
     id="defs1" />
  <path
     id="rect1"
     style="color:#000000;fill:#000000;stroke-linecap:round;-inkscape-stroke:none"
     d="M 0.92604168,0 C 0.41930478,0 0,0.41878806 0,0.9255249 V 7.5411418 C 0,8.0478787 0.41930478,8.4666666 0.92604168,8.4666666 H 5.1583415 c 0.5067369,0 0.9260417,-0.4187879 0.9260417,-0.9255249 V 5.8745767 A 0.26458333,0.26458333 0 0 0 5.8197999,5.6099934 H 5.5557332 A 0.26458333,0.26458333 0 0 0 5.2911499,5.8745767 v 1.6665651 c 0,0.077763 -0.055045,0.1328084 -0.1328084,0.1328084 H 0.92604168 c -0.077764,0 -0.1328084,-0.055045 -0.1328084,-0.1328084 V 0.9255249 c 0,-0.0777633 0.055045,-0.13280843 0.1328084,-0.13280843 H 5.1583415 c 0.077763,0 0.1328084,0.0550451 0.1328084,0.13280843 V 2.3481771 A 0.26458333,0.26458333 0 0 0 5.5557332,2.6127604 H 5.8197999 A 0.26458333,0.26458333 0 0 0 6.0843832,2.3481771 V 0.9255249 C 6.0843832,0.41878806 5.6650784,-1e-8 5.1583415,0 Z" />
  <g
     id="g5"
     transform="rotate(180,6.2844251,3.9847363)"
     style="stroke-width:0.79375;stroke-dasharray:none">
    <path
       style="fill:#000000;fill-opacity:1;stroke:#000000;stroke-width:0.79375;stroke-linecap:round;stroke-dasharray:none;stroke-opacity:1"
       d="M 4.5681749,3.725354 H 8.8063037"
       id="path3" />
    <path
       style="fill:#000000;fill-opacity:1;stroke:#000000;stroke-width:0.79375;stroke-linecap:round;stroke-dasharray:none;stroke-opacity:1"
       d="M 8.9086302,3.7414157 7.9010618,2.670515 M 8.9086302,3.7308629 7.9010618,4.8017636"
       id="path4" />
  </g>
</svg>
