<?xml version="1.0" encoding="UTF-8" standalone="no"?>
<!-- Created with Inkscape (http://www.inkscape.org/) -->

<svg
   width="31.739243"
   height="32"
   viewBox="0 0 8.3976744 8.4666666"
   version="1.1"
   id="svg1"
   xmlns="http://www.w3.org/2000/svg"
   xmlns:svg="http://www.w3.org/2000/svg">
  <defs
     id="defs1" />
  <g
     id="layer1"
     transform="translate(-0.90795492,0.49719402)">
    <path
       id="rect1"
       style="color:#000000;fill:#000000;stroke-linecap:round;-inkscape-stroke:none"
       d="m 1.8339966,-0.09955855 c -0.5067369,0 -0.92604169,0.41878806 -0.92604168,0.9255249 V 7.4415832 c 0,0.5067369 0.41930478,0.9255249 0.92604168,0.9255249 h 4.2322998 c 0.5067369,0 0.9260417,-0.418788 0.9260417,-0.9255249 V 5.7750182 A 0.26458333,0.26458333 45 0 0 6.7277548,5.5104349 H 6.4636881 A 0.26458333,0.26458333 135 0 0 6.1991048,5.7750182 v 1.666565 c 0,0.077763 -0.055045,0.1328084 -0.1328084,0.1328084 H 1.8339966 c -0.077764,0 -0.1328084,-0.055045 -0.1328084,-0.1328084 V 0.82596635 c 0,-0.0777633 0.055045,-0.13280843 0.1328084,-0.13280843 h 4.2322998 c 0.077763,0 0.1328084,0.0550451 0.1328084,0.13280843 l 0,1.42265225 A 0.26458333,0.26458333 45 0 0 6.4636881,2.5132019 H 6.7277548 A 0.26458333,0.26458333 135 0 0 6.9923381,2.2486186 V 0.82596635 c 0,-0.50673684 -0.4193048,-0.92552491 -0.9260417,-0.9255249 z"
       transform="translate(0,-0.39763547)" />
    <g
       id="g5">
      <path
         style="fill:#000000;fill-opacity:1;stroke:#000000;stroke-width:0.793999;stroke-linecap:round;stroke-dasharray:none;stroke-opacity:1"
         d="M 4.5681749,3.725354 H 8.8063037"
         id="path3" />
      <path
         style="fill:#000000;fill-opacity:1;stroke:#000000;stroke-width:0.793999;stroke-linecap:round;stroke-dasharray:none;stroke-opacity:1"
         d="M 8.9086302,3.7414157 7.9010618,2.670515 M 8.9086302,3.7308629 7.9010618,4.8017636"
         id="path4" />
    </g>
  </g>
</svg>
