<?xml version="1.0" encoding="UTF-8" standalone="no"?>
<!-- Created with Inkscape (http://www.inkscape.org/) -->

<svg
   width="63.06958"
   height="41.910736"
   viewBox="0 0 16.687161 11.088882"
   version="1.1"
   id="svg1"
   xmlns="http://www.w3.org/2000/svg"
   xmlns:svg="http://www.w3.org/2000/svg">
  <defs
     id="defs1" />
  <g
     id="layer1"
     transform="translate(-8.3740609,-1.919164)"
     style="stroke-width:0.79375;stroke-dasharray:none">
    <g
       id="g5"
       transform="translate(4.0862031e-5,2.2820059)"
       style="stroke-width:0.79375;stroke-dasharray:none">
      <path
         style="fill:none;stroke:#000000;stroke-width:0.79375;stroke-linecap:round;stroke-dasharray:none;stroke-opacity:1"
         d="M 24.664305,8 V 6.5387188 c 0,-0.3121275 -0.209644,-0.5853406 -0.511136,-0.6661251 L 22.161748,5.338994 C 21.836159,5.2517527 21.562373,5.0314096 21.407536,4.7320025 L 20.25267,2.4988595 C 20.103361,2.2101417 19.805468,2.0288264 19.480427,2.0288264 h -7.532172 c -0.292474,0 -0.529786,0.2366915 -0.530551,0.5291649 L 11.403467,8"
         id="path1" />
      <path
         id="path2"
         d="m 20.659033,8.9291649 c 0,0.7731986 0.626801,1.4000001 1.4,1.4000001 0.773198,0 1.399999,-0.6268015 1.399999,-1.4000001 0,-0.7731986 -0.626801,-1.4 -1.399999,-1.4 -0.773199,0 -1.4,0.6268014 -1.4,1.4 z"
         style="fill:none;stroke:#000000;stroke-width:0.79375;stroke-linecap:round;stroke-dasharray:none;stroke-opacity:1" />
      <path
         id="path2-0"
         d="m 12.497068,8.9291649 c 0,0.7731986 0.626801,1.4000001 1.4,1.4000001 0.773198,0 1.4,-0.6268015 1.4,-1.4000001 0,-0.7731986 -0.626802,-1.4 -1.4,-1.4 -0.773199,0 -1.4,0.6268014 -1.4,1.4 z"
         style="fill:none;stroke:#000000;stroke-width:0.79375;stroke-linecap:round;stroke-dasharray:none;stroke-opacity:1" />
      <path
         style="fill:none;stroke:#000000;stroke-width:0.79375;stroke-linecap:round;stroke-dasharray:none;stroke-opacity:1"
         d="M 19.360076,8.029165 H 16.578192"
         id="path3" />
      <path
         style="fill:none;stroke:#000000;stroke-width:0.79375;stroke-linecap:round;stroke-dasharray:none;stroke-opacity:1"
         d="M 19.550232,4.6478501 19.23981,3.9995839 c -0.139662,-0.2916614 -0.434332,-0.47727 -0.757707,-0.47727 h -1.011161 c -0.286758,0 -0.514058,0.2419377 -0.496185,0.5281378 l 0.03318,0.5312779 c 0.01857,0.2973092 0.264257,0.5294263 0.562141,0.5310858 l 1.679537,0.00936 c 0.244591,0.00136 0.406258,-0.2537201 0.300619,-0.4743253 z"
         id="path4" />
      <path
         style="fill:none;stroke:#000000;stroke-width:0.79375;stroke-linecap:round;stroke-dasharray:none;stroke-opacity:1"
         d="M 15.388974,3.7604174 H 13.167208"
         id="path5" />
    </g>
  </g>
  <path
     style="fill:none;stroke:#000000;stroke-width:0.79375;stroke-linecap:round;stroke-dasharray:none"
     d="M 6.286037,0.39687499 H 2.6064024"
     id="path7" />
  <path
     style="fill:none;stroke:#000000;stroke-width:0.79375;stroke-linecap:round;stroke-dasharray:none"
     d="M 2.65413,2.9561786 H 0.39687499"
     id="path8" />
  <path
     style="fill:none;stroke:#000000;stroke-width:0.79375;stroke-linecap:round;stroke-dasharray:none"
     d="M 1.9963312,5.6582878 H 0.94500699"
     id="path9" />
</svg>
