<?xml version="1.0" encoding="UTF-8" standalone="no"?>
<!-- Created with Inkscape (http://www.inkscape.org/) -->

<svg
   width="48"
   height="48"
   viewBox="0 0 12.7 12.7"
   version="1.1"
   id="svg1"
   xmlns="http://www.w3.org/2000/svg"
   xmlns:svg="http://www.w3.org/2000/svg">
  <defs
     id="defs1" />
  <g
     id="layer1">
    <g
       id="g4"
       transform="translate(-0.08133735,0.09761696)">
      <path
         id="rect1"
         style="fill:none;stroke:#000000;stroke-width:0.79375;stroke-linecap:round;stroke-linejoin:round;stroke-dashoffset:7.5"
         d="M 11.409577,5.3737701 V 11.544874 A 0.52916667,0.52916667 135 0 1 10.88041,12.074041 H 9.7504191 A 0.52916667,0.52916667 45 0 1 9.2212524,11.544874 V 8.670345 A 0.53875803,0.53875803 45.514577 0 0 8.6921711,8.1316738 l -1.497433,-0.0269 A 0.51974606,0.51974606 135.51458 0 0 6.6656568,8.6244361 V 11.544874 A 0.52916667,0.52916667 135 0 1 6.1364901,12.074041 H 2.004689 A 0.52916667,0.52916667 45 0 1 1.4755223,11.544874 V 5.3737701" />
      <g
         id="g2"
         transform="translate(-0.49855979)">
        <path
           id="rect2"
           style="fill:none;stroke:#000000;stroke-width:0.79375;stroke-linecap:round;stroke-linejoin:round;stroke-dashoffset:7.5"
           d="m 2.7890043,0.43072509 8.2365617,0 a 1.0259418,1.0259418 27.284062 0 1 0.835943,0.43116785 L 12.835457,2.2307568 A 0.2729369,0.2729369 117.28406 0 1 12.613066,2.6619247 H 1.2627162 A 0.27914721,0.27914721 62.187354 0 1 1.0323185,2.2251702 L 1.9610687,0.86747958 A 1.0031172,1.0031172 152.18735 0 1 2.7890043,0.43072509 Z" />
        <path
           id="path2"
           style="fill:none;stroke:#000000;stroke-width:0.79375;stroke-linecap:round;stroke-linejoin:round;stroke-dashoffset:7.5"
           d="m 3.9563293,2.8999831 a 1.5,1.5 0 0 1 -0.75,1.2990381 1.5,1.5 0 0 1 -1.5000001,-10e-8 1.5,1.5 0 0 1 -0.74999993,-1.299038" />
        <path
           id="path2-8"
           style="fill:none;stroke:#000000;stroke-width:0.79375;stroke-linecap:round;stroke-linejoin:round;stroke-dashoffset:7.5"
           d="m 6.9168798,2.8999831 a 1.5,1.5 0 0 1 -0.75,1.2990381 1.5,1.5 0 0 1 -1.5000001,-10e-8 1.5,1.5 0 0 1 -0.7499999,-1.299038" />
        <path
           id="path2-8-1"
           style="fill:none;stroke:#000000;stroke-width:0.79375;stroke-linecap:round;stroke-linejoin:round;stroke-dashoffset:7.5"
           d="m 9.9110716,2.8999832 a 1.5,1.5 0 0 1 -0.75,1.2990381 1.5,1.5 0 0 1 -1.4999996,-1e-7 1.5,1.5 0 0 1 -0.7499999,-1.299038" />
        <path
           id="path2-8-1-2"
           style="fill:none;stroke:#000000;stroke-width:0.79375;stroke-linecap:round;stroke-linejoin:round;stroke-dashoffset:7.5"
           d="m 12.903465,2.8999831 a 1.5,1.5 0 0 1 -0.75,1.2990381 1.5,1.5 0 0 1 -1.5,-10e-8 1.5,1.5 0 0 1 -0.7499995,-1.299038" />
      </g>
      <path
         style="fill:none;stroke:#000000;stroke-width:0.79375;stroke-linecap:round;stroke-linejoin:round;stroke-dasharray:none;stroke-dashoffset:7.5"
         id="rect3"
         width="2.3413541"
         height="1.8593105"
         x="3.5438514"
         y="5.9005084"
         d="M 4.073018,5.9005084 H 5.3560388 A 0.52916667,0.52916667 45 0 1 5.8852055,6.4296751 V 7.2306522 A 0.52916667,0.52916667 135 0 1 5.3560388,7.7598189 H 4.073018 A 0.52916667,0.52916667 45 0 1 3.5438514,7.2306522 V 6.4296751 A 0.52916667,0.52916667 135 0 1 4.073018,5.9005084 Z"
         transform="translate(-0.52916667)" />
    </g>
  </g>
</svg>
